<?xml version="1.0" standalone="no"?>
<!DOCTYPE svg PUBLIC "-//W3C//DTD SVG 20010904//EN"
 "http://www.w3.org/TR/2001/REC-SVG-20010904/DTD/svg10.dtd">
<svg version="1.0" xmlns="http://www.w3.org/2000/svg"
 width="1024.000000pt" height="1024.000000pt" viewBox="0 0 1024.000000 1024.000000"
 preserveAspectRatio="xMidYMid meet">
<metadata>
Created by potrace 1.14, written by Peter Selinger 2001-2017
</metadata>
<g transform="translate(0.000000,1024.000000) scale(0.100000,-0.100000)"
fill="#000000" stroke="none">
<path d="M5482 9282 c-32 -30 -49 -85 -37 -121 3 -12 18 -34 31 -51 86 -102
251 20 189 140 -22 42 -53 60 -106 60 -38 0 -53 -6 -77 -28z"/>
<path d="M6241 9211 c-6 -11 -11 -26 -11 -34 0 -8 -16 -46 -35 -85 -47 -94
-102 -142 -213 -185 -76 -29 -87 -37 -90 -59 -3 -23 3 -28 45 -43 171 -63 234
-123 283 -271 12 -35 25 -66 30 -69 20 -13 41 12 66 78 52 137 101 189 236
243 45 18 87 40 93 48 13 21 -16 50 -68 66 -91 27 -167 81 -208 147 -12 19
-34 67 -48 107 -21 55 -32 72 -48 74 -14 2 -26 -4 -32 -17z"/>
<path d="M4709 9056 c-33 -23 -48 -46 -64 -103 -10 -35 12 -96 45 -128 28 -27
38 -30 98 -30 73 0 106 16 136 67 38 62 8 171 -54 203 -46 24 -119 19 -161 -9z"/>
<path d="M5234 8716 c-28 -28 -34 -42 -34 -76 0 -34 6 -48 34 -76 64 -64 149
-37 179 58 11 33 -13 88 -46 108 -50 31 -93 26 -133 -14z"/>
<path d="M4063 8728 c-4 -7 -19 -38 -34 -68 -31 -67 -72 -103 -157 -141 -38
-18 -62 -34 -60 -41 3 -7 34 -25 69 -40 78 -33 122 -72 157 -144 14 -30 32
-54 39 -54 8 0 22 20 33 45 33 77 65 109 145 148 41 20 75 43 75 50 0 8 -29
27 -65 42 -73 31 -118 77 -153 156 -22 52 -37 66 -49 47z"/>
<path d="M7203 8240 c-7 -11 -13 -26 -13 -34 0 -7 -16 -45 -35 -84 -44 -86
-111 -151 -192 -182 -32 -12 -68 -26 -81 -31 -56 -22 -32 -66 51 -92 116 -37
188 -106 242 -235 35 -84 59 -99 81 -52 7 14 29 60 49 102 41 89 87 133 181
173 98 43 109 50 112 73 2 15 -4 25 -20 31 -13 5 -49 19 -81 32 -86 33 -156
101 -196 191 -48 110 -55 123 -71 126 -8 1 -21 -7 -27 -18z"/>
<path d="M5459 8215 c-34 -19 -55 -68 -43 -102 16 -46 51 -62 175 -78 64 -8
160 -26 215 -40 124 -32 154 -32 188 0 50 46 32 117 -39 153 -57 29 -336 82
-427 82 -24 -1 -55 -7 -69 -15z"/>
<path d="M2759 8177 c-61 -41 -77 -113 -39 -175 23 -37 54 -52 112 -52 34 0
47 6 79 39 33 33 39 45 39 82 0 106 -105 164 -191 106z"/>
<path d="M5035 8175 c-381 -89 -725 -295 -976 -586 -47 -56 -59 -76 -59 -104
0 -48 29 -75 80 -75 37 0 48 7 148 102 183 173 346 284 552 376 111 50 245 97
330 116 106 23 127 33 144 71 30 62 -18 126 -91 124 -15 0 -73 -11 -128 -24z"/>
<path d="M3515 8045 c-136 -48 -130 -249 8 -286 70 -19 151 21 181 90 33 71
-2 158 -77 191 -50 23 -60 24 -112 5z"/>
<path d="M5254 7845 c-216 -31 -471 -131 -656 -257 -119 -80 -322 -282 -411
-408 -126 -178 -213 -383 -258 -605 -26 -128 -31 -376 -10 -485 48 -257 178
-506 339 -651 111 -99 246 -179 305 -179 59 0 99 69 65 112 -7 8 -47 35 -88
58 -86 50 -202 157 -266 247 -60 83 -120 214 -152 331 -23 88 -26 114 -26 277
0 163 3 189 27 278 80 297 304 595 580 770 365 232 812 271 1156 100 679 -337
806 -1204 255 -1746 -82 -81 -213 -172 -424 -293 -193 -111 -292 -183 -401
-294 -224 -228 -362 -539 -401 -907 -10 -98 -9 -106 9 -131 27 -37 81 -42 109
-10 12 13 35 66 53 118 77 227 218 450 381 603 122 115 264 204 570 357 353
177 540 300 540 355 0 31 -32 50 -60 35 -10 -6 -50 -33 -87 -62 -45 -34 -59
-41 -42 -22 14 16 42 47 62 69 102 114 226 320 282 470 128 340 124 716 -12
1035 -159 373 -438 639 -805 768 -191 68 -443 94 -634 67z"/>
<path d="M6380 7780 c-47 -47 -2 -122 59 -98 31 11 41 25 41 60 0 54 -61 77
-100 38z"/>
<path d="M6664 7560 c-26 -10 -54 -48 -54 -72 0 -87 112 -116 152 -39 17 34
10 78 -15 100 -19 15 -60 21 -83 11z"/>
<path d="M7589 7281 c-74 -75 5 -201 102 -161 40 17 59 47 59 93 0 53 -43 97
-95 97 -27 0 -44 -8 -66 -29z"/>
<path d="M6835 7267 c-21 -21 -35 -45 -35 -60 0 -13 23 -81 51 -151 62 -156
103 -316 119 -465 21 -196 -3 -370 -85 -629 -48 -153 -53 -193 -31 -245 48
-113 192 -135 281 -43 46 47 72 118 107 286 19 90 22 138 22 335 0 258 -12
338 -79 536 -41 120 -184 416 -214 443 -11 10 -38 20 -60 23 -36 5 -44 2 -76
-30z"/>
<path d="M2975 7220 c-41 -27 -65 -75 -65 -131 0 -62 32 -108 91 -132 39 -16
51 -17 89 -7 55 15 107 67 116 117 9 50 -21 121 -65 150 -44 30 -123 31 -166
3z"/>
<path d="M5104 7215 c-156 -34 -322 -135 -423 -257 -183 -221 -222 -541 -97
-793 71 -141 159 -235 299 -319 165 -98 397 -118 589 -52 223 78 407 264 484
491 35 104 44 272 20 385 -23 111 -94 245 -176 333 -100 106 -253 190 -394
216 -79 15 -226 13 -302 -4z m220 -305 c293 -48 451 -367 316 -641 -37 -77
-75 -122 -144 -175 -82 -62 -171 -88 -284 -82 -123 7 -188 34 -268 113 -102
100 -141 207 -132 367 5 74 11 99 42 163 72 153 219 251 396 264 8 0 41 -3 74
-9z"/>
<path d="M5135 6517 c-128 -72 -119 -249 16 -317 134 -69 299 63 260 206 -6
23 -20 53 -32 68 -52 66 -167 86 -244 43z"/>
<path d="M3746 7108 c-21 -29 -20 -51 2 -71 26 -24 68 -21 86 5 21 30 20 44
-4 68 -27 27 -65 26 -84 -2z"/>
<path d="M7920 6868 c-87 -44 -117 -143 -69 -228 51 -90 178 -103 255 -26 83
83 48 227 -65 265 -49 16 -71 14 -121 -11z"/>
<path d="M3655 6788 c-31 -18 -44 -40 -45 -75 0 -45 9 -62 41 -78 40 -21 63
-19 98 11 42 35 43 84 2 125 -31 30 -63 36 -96 17z"/>
<path d="M2763 6568 c-4 -7 -19 -38 -34 -68 -31 -67 -72 -103 -157 -141 -38
-18 -62 -34 -60 -41 3 -7 34 -25 69 -40 78 -33 122 -72 157 -144 14 -30 32
-54 39 -54 8 0 22 20 33 45 33 77 65 109 145 148 41 20 75 43 75 50 0 8 -29
27 -65 42 -73 31 -118 77 -153 156 -22 52 -37 66 -49 47z"/>
<path d="M7584 6231 c-63 -38 -70 -128 -13 -175 83 -70 198 8 169 115 -19 70
-93 98 -156 60z"/>
<path d="M2952 5629 c-152 -76 -146 -298 10 -364 169 -70 345 107 269 270 -47
103 -175 145 -279 94z"/>
<path d="M3656 5449 c-35 -28 -37 -95 -3 -127 56 -53 147 -12 147 66 0 74 -83
109 -144 61z"/>
<path d="M5100 5412 c-54 -26 -280 -256 -340 -346 -61 -92 -117 -207 -156
-321 -75 -224 -94 -586 -48 -947 l6 -46 -103 51 c-127 63 -273 118 -439 163
-391 108 -636 206 -822 330 -107 71 -243 194 -289 261 -17 23 -33 43 -37 43
-4 -1 -29 -38 -55 -83 -128 -219 -380 -474 -556 -563 -33 -16 -64 -38 -69 -49
-5 -11 -197 -304 -427 -650 -529 -798 -836 -1263 -976 -1479 -49 -76 -66 -93
-110 -115 -29 -14 -66 -43 -83 -64 -29 -36 -31 -44 -31 -121 0 -74 3 -86 27
-118 53 -70 68 -73 398 -77 458 -5 1057 22 1585 73 524 51 1062 75 1686 76
l217 0 13 -31 c16 -40 80 -123 133 -172 55 -51 204 -124 296 -144 100 -22 321
-22 411 0 184 45 344 161 416 301 l25 49 511 -6 c652 -9 915 -23 1582 -87 428
-41 977 -64 1391 -58 286 4 301 5 341 26 56 29 95 88 101 152 8 88 -62 196
-140 215 -18 5 -39 25 -61 59 -171 259 -565 853 -915 1381 -234 352 -449 678
-479 724 -49 77 -59 88 -125 124 -171 92 -351 268 -496 485 -33 48 -67 102
-76 120 l-17 34 -29 -45 c-45 -71 -165 -192 -261 -262 -174 -128 -320 -198
-689 -330 -314 -113 -510 -224 -677 -382 -180 -171 -281 -366 -420 -803 -30
-96 -62 -199 -71 -227 -10 -29 -21 -53 -26 -53 -4 0 -6 120 -3 268 4 216 9
291 27 392 93 524 331 918 734 1217 132 98 202 141 447 269 228 120 355 195
459 272 170 126 227 188 251 277 24 86 -57 214 -146 231 -88 16 -126 -1 -302
-137 -143 -111 -214 -153 -491 -297 -354 -184 -482 -272 -648 -444 -231 -241
-368 -509 -462 -903 -57 -240 -64 -310 -70 -695 l-5 -355 -29 85 c-71 208
-197 757 -238 1035 -73 499 -40 880 104 1180 67 138 117 205 256 337 119 114
128 131 85 173 -28 29 -38 30 -85 7z m-2134 -1171 c90 -82 210 -161 345 -225
147 -71 283 -116 489 -161 397 -87 604 -168 732 -283 35 -32 105 -148 95 -158
-2 -2 -9 7 -16 20 -16 29 -136 99 -246 142 -125 50 -275 89 -556 144 -277 55
-447 97 -638 159 -143 46 -147 39 -11 -17 166 -69 369 -129 580 -172 406 -82
615 -180 823 -384 103 -100 158 -190 81 -131 -52 39 -243 149 -353 202 -150
71 -365 136 -706 213 -143 32 -307 78 -510 144 -110 36 -201 63 -203 61 -2 -2
18 -13 45 -25 195 -88 428 -164 749 -244 519 -130 720 -230 966 -480 102 -103
149 -175 252 -387 114 -234 119 -264 18 -117 -220 324 -417 504 -701 644 -179
87 -341 142 -831 283 -244 69 -512 155 -644 205 -121 46 -88 22 64 -47 120
-54 394 -147 740 -252 416 -125 548 -179 735 -303 176 -117 330 -258 489 -447
104 -125 196 -261 196 -290 0 -4 -107 101 -237 232 -208 209 -253 249 -353
315 -131 86 -207 128 -294 165 -34 14 -79 33 -101 43 -68 31 -378 135 -665
224 -151 47 -389 124 -529 171 -139 47 -255 84 -258 82 -5 -6 117 -64 227
-109 98 -40 408 -147 720 -247 434 -139 624 -221 830 -357 224 -148 505 -434
622 -634 40 -67 118 -223 118 -234 0 -2 -51 48 -112 111 -213 219 -439 389
-738 555 -157 88 -517 269 -663 334 -332 148 -866 340 -1209 435 -87 24 -158
46 -158 49 0 3 37 55 82 115 51 68 162 190 291 320 115 116 243 252 285 303
42 50 81 92 85 92 5 0 38 -27 73 -59z m4655 -232 c74 -74 166 -164 204 -200
69 -65 283 -334 273 -345 -3 -2 -95 -32 -204 -65 -574 -174 -1034 -354 -1479
-580 -544 -275 -780 -434 -1062 -715 -73 -72 -133 -130 -133 -128 0 19 103
211 157 292 134 202 381 440 609 587 211 136 381 209 874 375 389 131 597 205
710 253 117 49 191 86 173 87 -6 0 -125 -40 -265 -88 -139 -49 -361 -123 -493
-166 -525 -170 -675 -226 -872 -325 -225 -112 -357 -215 -616 -475 -97 -99
-180 -176 -183 -173 -14 14 95 166 219 305 152 170 310 309 468 412 193 125
357 195 749 320 348 111 513 167 644 219 123 50 206 88 206 95 0 2 -71 -21
-157 -51 -87 -30 -295 -97 -463 -149 -599 -187 -700 -223 -912 -329 -157 -78
-238 -130 -353 -227 -137 -116 -293 -299 -405 -475 -28 -46 -54 -83 -55 -83
-10 0 31 115 69 195 101 213 292 451 469 584 204 152 408 241 832 362 377 108
613 190 732 254 52 28 50 28 -77 -15 -198 -67 -389 -126 -610 -186 -335 -92
-389 -109 -535 -166 -156 -62 -434 -200 -527 -262 -38 -24 -68 -41 -68 -37 0
4 42 50 93 102 130 134 219 196 426 299 147 73 226 100 481 165 124 31 274 72
335 92 110 36 349 132 343 139 -2 2 -64 -17 -138 -42 -170 -56 -406 -119 -675
-179 -352 -79 -556 -156 -698 -264 l-68 -51 36 43 c79 94 220 204 341 265 95
48 274 106 496 162 112 28 232 60 268 72 180 58 383 181 507 305 l78 78 61
-75 c34 -41 121 -136 195 -211z m638 -934 c54 -58 173 -207 168 -211 -1 -1
-33 6 -72 16 -316 80 -796 91 -1152 25 -40 -7 70 30 225 75 173 51 419 106
607 135 83 13 153 23 156 24 4 1 34 -28 68 -64z m-6009 35 c179 -27 352 -65
530 -115 168 -48 315 -98 262 -90 -157 23 -250 29 -487 29 -200 0 -301 -4
-391 -17 -123 -17 -310 -52 -340 -64 -18 -6 38 65 151 195 82 95 76 93 275 62z
m5673 -365 c78 -8 154 -18 168 -23 17 -4 61 -48 117 -116 l90 -108 69 -3 c37
-1 76 -6 86 -10 16 -7 -19 56 -80 142 l-15 23 40 -14 c23 -8 71 -30 107 -49
71 -37 91 -61 346 -420 l98 -137 -72 49 c-95 65 -293 172 -418 227 -384 170
-829 254 -1328 254 -246 0 -605 -34 -810 -75 -41 -8 -76 -14 -78 -12 -5 6 148
75 242 110 257 95 482 140 860 170 120 10 451 5 578 -8z m-4828 -15 c353 -37
608 -105 888 -235 55 -25 76 -42 40 -31 -37 11 -263 47 -383 61 -570 66 -1141
19 -1599 -131 -212 -69 -492 -203 -658 -314 -41 -27 -77 -50 -80 -50 -7 0 72
111 235 328 140 187 146 194 210 226 37 18 78 37 92 41 23 7 24 7 9 -16 -14
-22 -59 -132 -59 -145 0 -3 6 -2 13 3 6 4 40 12 75 18 l62 10 88 105 88 105
90 13 c49 7 125 17 169 22 99 11 584 5 720 -10z m820 -364 c294 -34 416 -73
596 -187 100 -64 217 -151 279 -208 l45 -42 -55 43 c-78 61 -136 93 -247 137
-300 119 -743 190 -1000 162 -356 -40 -1089 -231 -1933 -505 -266 -87 -362
-111 -478 -119 l-63 -5 28 46 c15 26 33 58 40 72 10 21 41 36 170 83 336 120
971 315 1374 421 175 47 397 91 524 105 55 6 116 13 135 15 72 8 460 -4 585
-18z m3235 -1 c292 -45 667 -150 1405 -390 176 -58 371 -124 434 -148 l115
-42 44 -69 44 -69 -100 6 c-114 8 -166 22 -522 140 -634 212 -1320 401 -1659
459 -165 28 -424 30 -591 5 -389 -60 -693 -166 -865 -302 l-70 -56 70 66 c82
78 298 227 411 284 126 63 274 97 557 126 176 18 582 13 727 -10z m-3240 -340
c302 -16 551 -67 890 -182 147 -50 199 -73 220 -98 8 -9 32 -26 54 -37 49 -25
90 -16 157 36 66 51 381 158 619 212 441 99 958 105 1505 18 355 -57 552 -108
970 -251 l100 -34 -110 6 c-137 8 -463 48 -615 75 -873 156 -1118 171 -1685
100 -227 -29 -380 -57 -436 -81 -62 -27 -92 -67 -139 -187 -29 -72 -48 -105
-76 -129 -66 -58 -192 -84 -310 -64 -129 23 -197 70 -230 158 -87 239 -85 238
-589 303 -501 65 -842 48 -1513 -75 -329 -60 -536 -86 -782 -100 l-105 -6 105
36 c527 182 1015 280 1525 304 165 8 225 7 445 -4z"/>
<path d="M4000 5008 c-137 -71 -89 -278 65 -278 159 0 215 207 75 281 -46 25
-86 24 -140 -3z"/>
</g>
</svg>
